<svg xmlns="http://www.w3.org/2000/svg" viewBox="0 0 24 24" fill="#1DB954">
  <path d="M12 0C5.37 0 0 5.37 0 12s5.37 12 12 12 12-5.37 12-12S18.63 0 12 0zm5.49 17.3c-.22.36-.68.47-1.05.25-2.98-1.82-6.73-2.23-11.14-1.22-.4.09-.81-.15-.9-.54-.09-.4.15-.81.54-.9 4.83-1.1 9-0.63 12.3 1.39.36.22.48.68.25 1.05zm1.46-3.26c-.28.45-.88.6-1.33.32-3.41-2.09-8.61-2.7-12.63-1.48-.51.16-1.05-.13-1.21-.64-.16-.51.13-1.05.64-1.21 4.59-1.39 10.33-0.7 14.22 1.68.45.28.6.88.32 1.33zm.13-3.39c-4.09-2.43-10.83-2.65-14.73-1.47-.63.19-1.29-.17-1.48-.8-.19-.63.17-1.29.8-1.48 4.47-1.36 11.91-1.1 16.59 1.68.56.33.74 1.05.41 1.61-.33.56-1.05.74-1.61.41z"/>
</svg>
